<svg xmlns="http://www.w3.org/2000/svg" xmlns:xlink="http://www.w3.org/1999/xlink" version="1.1" class="marks" width="1146" height="617" viewBox="0 0 1146 617"><rect width="1146" height="617" fill="white"/><g fill="none" stroke-miterlimit="10" transform="translate(41,10)"><g class="mark-group role-frame root" role="graphics-object" aria-roledescription="group mark container"><g transform="translate(0,0)"><path class="background" aria-hidden="true" d="M0.5,0.5h1100v400h-1100Z" stroke="#ddd"/><g><g class="mark-group role-axis" aria-hidden="true"><g transform="translate(0.5,0.5)"><path class="background" aria-hidden="true" d="M0,0h0v0h0Z" pointer-events="none"/><g><g class="mark-rule role-axis-grid" pointer-events="none"><line transform="translate(0,400)" x2="1100" y2="0" stroke="#ddd" stroke-width="1" opacity="1"/><line transform="translate(0,360)" x2="1100" y2="0" stroke="#ddd" stroke-width="1" opacity="1"/><line transform="translate(0,320)" x2="1100" y2="0" stroke="#ddd" stroke-width="1" opacity="1"/><line transform="translate(0,280)" x2="1100" y2="0" stroke="#ddd" stroke-width="1" opacity="1"/><line transform="translate(0,240)" x2="1100" y2="0" stroke="#ddd" stroke-width="1" opacity="1"/><line transform="translate(0,200)" x2="1100" y2="0" stroke="#ddd" stroke-width="1" opacity="1"/><line transform="translate(0,160)" x2="1100" y2="0" stroke="#ddd" stroke-width="1" opacity="1"/><line transform="translate(0,120)" x2="1100" y2="0" stroke="#ddd" stroke-width="1" opacity="1"/><line transform="translate(0,80)" x2="1100" y2="0" stroke="#ddd" stroke-width="1" opacity="1"/><line transform="translate(0,40)" x2="1100" y2="0" stroke="#ddd" stroke-width="1" opacity="1"/><line transform="translate(0,0)" x2="1100" y2="0" stroke="#ddd" stroke-width="1" opacity="1"/></g></g><path class="foreground" aria-hidden="true" d="" pointer-events="none" display="none"/></g></g><g class="mark-group role-axis" role="graphics-symbol" aria-roledescription="axis" aria-label="X-axis titled 'Agence' for a discrete scale with 10 values: CENTRE NATIONAL DEDOUANEMENT POSTAL, CENTRE CASA COLIS POSTAUX, CENTRE MESSAGERIE MARRAKECH, CENTRE NATIONAL AMANA, Site inexistant : 0, ending with REGION TANGER"><g transform="translate(0.5,400.5)"><path class="background" aria-hidden="true" d="M0,0h0v0h0Z" pointer-events="none"/><g><g class="mark-rule role-axis-tick" pointer-events="none"><line transform="translate(55,0)" x2="0" y2="5" stroke="#888" stroke-width="1" opacity="1"/><line transform="translate(165,0)" x2="0" y2="5" stroke="#888" stroke-width="1" opacity="1"/><line transform="translate(275,0)" x2="0" y2="5" stroke="#888" stroke-width="1" opacity="1"/><line transform="translate(385,0)" x2="0" y2="5" stroke="#888" stroke-width="1" opacity="1"/><line transform="translate(495,0)" x2="0" y2="5" stroke="#888" stroke-width="1" opacity="1"/><line transform="translate(605,0)" x2="0" y2="5" stroke="#888" stroke-width="1" opacity="1"/><line transform="translate(715,0)" x2="0" y2="5" stroke="#888" stroke-width="1" opacity="1"/><line transform="translate(825,0)" x2="0" y2="5" stroke="#888" stroke-width="1" opacity="1"/><line transform="translate(935,0)" x2="0" y2="5" stroke="#888" stroke-width="1" opacity="1"/><line transform="translate(1045,0)" x2="0" y2="5" stroke="#888" stroke-width="1" opacity="1"/></g><g class="mark-text role-axis-label" pointer-events="none"><text text-anchor="end" transform="translate(54.5,7) rotate(270) translate(0,3)" font-family="sans-serif" font-size="10px" fill="#000" opacity="1">CENTRE NATIONAL DEDOUANEME…</text><text text-anchor="end" transform="translate(164.5,7) rotate(270) translate(0,3)" font-family="sans-serif" font-size="10px" fill="#000" opacity="1">CENTRE CASA COLIS POSTAUX</text><text text-anchor="end" transform="translate(274.5,7) rotate(270) translate(0,3)" font-family="sans-serif" font-size="10px" fill="#000" opacity="1">CENTRE MESSAGERIE MARRAKECH</text><text text-anchor="end" transform="translate(384.5,7) rotate(270) translate(0,3)" font-family="sans-serif" font-size="10px" fill="#000" opacity="1">CENTRE NATIONAL AMANA</text><text text-anchor="end" transform="translate(494.5,7) rotate(270) translate(0,3)" font-family="sans-serif" font-size="10px" fill="#000" opacity="1">Site inexistant : 0</text><text text-anchor="end" transform="translate(604.5,7) rotate(270) translate(0,3)" font-family="sans-serif" font-size="10px" fill="#000" opacity="1">CENTRE MESSAGERIE RABAT</text><text text-anchor="end" transform="translate(714.5,7) rotate(270) translate(0,3)" font-family="sans-serif" font-size="10px" fill="#000" opacity="1">CHRONOPOST INTERNATIONAL C…</text><text text-anchor="end" transform="translate(824.5,7) rotate(270) translate(0,3)" font-family="sans-serif" font-size="10px" fill="#000" opacity="1">CENTRE NATIONAL TRAITEMENT R…</text><text text-anchor="end" transform="translate(934.5,7) rotate(270) translate(0,3)" font-family="sans-serif" font-size="10px" fill="#000" opacity="1">CENTRE COURRIER INTERNATIONAL</text><text text-anchor="end" transform="translate(1044.5,7) rotate(270) translate(0,3)" font-family="sans-serif" font-size="10px" fill="#000" opacity="1">REGION TANGER</text></g><g class="mark-rule role-axis-domain" pointer-events="none"><line transform="translate(0,0)" x2="1100" y2="0" stroke="#888" stroke-width="1" opacity="1"/></g><g class="mark-text role-axis-title" pointer-events="none"><text text-anchor="middle" transform="translate(550,199.82421875)" font-family="sans-serif" font-size="11px" font-weight="bold" fill="#000" opacity="1">Agence</text></g></g><path class="foreground" aria-hidden="true" d="" pointer-events="none" display="none"/></g></g><g class="mark-group role-axis" role="graphics-symbol" aria-roledescription="axis" aria-label="Y-axis titled 'ratio' for a linear scale with values from 0.0 to 1.0"><g transform="translate(0.5,0.5)"><path class="background" aria-hidden="true" d="M0,0h0v0h0Z" pointer-events="none"/><g><g class="mark-rule role-axis-tick" pointer-events="none"><line transform="translate(0,400)" x2="-5" y2="0" stroke="#888" stroke-width="1" opacity="1"/><line transform="translate(0,360)" x2="-5" y2="0" stroke="#888" stroke-width="1" opacity="1"/><line transform="translate(0,320)" x2="-5" y2="0" stroke="#888" stroke-width="1" opacity="1"/><line transform="translate(0,280)" x2="-5" y2="0" stroke="#888" stroke-width="1" opacity="1"/><line transform="translate(0,240)" x2="-5" y2="0" stroke="#888" stroke-width="1" opacity="1"/><line transform="translate(0,200)" x2="-5" y2="0" stroke="#888" stroke-width="1" opacity="1"/><line transform="translate(0,160)" x2="-5" y2="0" stroke="#888" stroke-width="1" opacity="1"/><line transform="translate(0,120)" x2="-5" y2="0" stroke="#888" stroke-width="1" opacity="1"/><line transform="translate(0,80)" x2="-5" y2="0" stroke="#888" stroke-width="1" opacity="1"/><line transform="translate(0,40)" x2="-5" y2="0" stroke="#888" stroke-width="1" opacity="1"/><line transform="translate(0,0)" x2="-5" y2="0" stroke="#888" stroke-width="1" opacity="1"/></g><g class="mark-text role-axis-label" pointer-events="none"><text text-anchor="end" transform="translate(-7,403)" font-family="sans-serif" font-size="10px" fill="#000" opacity="1">0.0</text><text text-anchor="end" transform="translate(-7,363)" font-family="sans-serif" font-size="10px" fill="#000" opacity="1">0.1</text><text text-anchor="end" transform="translate(-7,323)" font-family="sans-serif" font-size="10px" fill="#000" opacity="1">0.2</text><text text-anchor="end" transform="translate(-7,283)" font-family="sans-serif" font-size="10px" fill="#000" opacity="1">0.3</text><text text-anchor="end" transform="translate(-7,243)" font-family="sans-serif" font-size="10px" fill="#000" opacity="1">0.4</text><text text-anchor="end" transform="translate(-7,203)" font-family="sans-serif" font-size="10px" fill="#000" opacity="1">0.5</text><text text-anchor="end" transform="translate(-7,163)" font-family="sans-serif" font-size="10px" fill="#000" opacity="1">0.6</text><text text-anchor="end" transform="translate(-7,123.00000000000001)" font-family="sans-serif" font-size="10px" fill="#000" opacity="1">0.7</text><text text-anchor="end" transform="translate(-7,82.99999999999999)" font-family="sans-serif" font-size="10px" fill="#000" opacity="1">0.8</text><text text-anchor="end" transform="translate(-7,42.99999999999999)" font-family="sans-serif" font-size="10px" fill="#000" opacity="1">0.9</text><text text-anchor="end" transform="translate(-7,3)" font-family="sans-serif" font-size="10px" fill="#000" opacity="1">1.0</text></g><g class="mark-rule role-axis-domain" pointer-events="none"><line transform="translate(0,400)" x2="0" y2="-400" stroke="#888" stroke-width="1" opacity="1"/></g><g class="mark-text role-axis-title" pointer-events="none"><text text-anchor="middle" transform="translate(-24.9013671875,200) rotate(-90) translate(0,-2)" font-family="sans-serif" font-size="11px" font-weight="bold" fill="#000" opacity="1">ratio</text></g></g><path class="foreground" aria-hidden="true" d="" pointer-events="none" display="none"/></g></g><g class="mark-rect role-mark marks" role="graphics-symbol" aria-roledescription="rect mark container"><path d="M5.5,9.55103843427123h99v390.4489615657288h-99Z" fill="#4c78a8"/><path d="M115.5,396.5621840242669h99v3.4378159757330877h-99Z" fill="#4c78a8"/><path d="M225.5,397.2897272294086h99v2.7102727705914162h-99Z" fill="#4c78a8"/><path d="M335.5,399.27478121404414h99v0.7252187859558603h-99Z" fill="#4c78a8"/><path d="M445.5,399.58625338493545h99v0.4137466150645537h-99Z" fill="#4c78a8"/><path d="M555.5,399.618795253536h99v0.38120474646399316h-99Z" fill="#4c78a8"/><path d="M665.5,399.7164208593378h99v0.2835791406621979h-99Z" fill="#4c78a8"/><path d="M775.5,399.76988250061015h99v0.2301174993898485h-99Z" fill="#4c78a8"/><path d="M885.5,399.84891275292586h99v0.15108724707414467h-99Z" fill="#4c78a8"/><path d="M995.5,399.86518368722614h99v0.1348163127738644h-99Z" fill="#4c78a8"/></g></g><path class="foreground" aria-hidden="true" d="" display="none"/></g></g></g></svg>